<?xml version="1.0" encoding="UTF-8"?>
<!DOCTYPE svg PUBLIC "-//W3C//DTD SVG 1.1//EN" "http://www.w3.org/Graphics/SVG/1.1/DTD/svg11.dtd">
<!-- Creator: CorelDRAW -->
<svg xmlns="http://www.w3.org/2000/svg" xml:space="preserve" width="6.82666in" height="6.82666in" style="shape-rendering:geometricPrecision; text-rendering:geometricPrecision; image-rendering:optimizeQuality; fill-rule:evenodd; clip-rule:evenodd"
viewBox="0 0 6.82666 6.82666"
 xmlns:xlink="http://www.w3.org/1999/xlink">
 <defs>
  <style type="text/css">
   <![CDATA[
    .fil2 {fill:none}
    .fil1 {fill:#D32F2F}
    .fil0 {fill:#EF5350}
    .fil3 {fill:#FFFFFF;fill-rule:nonzero}
    .fil4 {fill:#FFFFFF;fill-rule:nonzero}
    .fil5 {fill:#FFFFFF;fill-rule:nonzero}
   ]]>
  </style>
   <clipPath id="id0">
    <path d="M3.41333 -3.93701e-006c1.88513,0 3.41333,1.5282 3.41333,3.41333 0,1.88513 -1.5282,3.41333 -3.41333,3.41333 -1.88513,0 -3.41333,-1.5282 -3.41333,-3.41333 0,-1.88513 1.5282,-3.41333 3.41333,-3.41333z"/>
   </clipPath>
 </defs>
 <g id="Layer_x0020_1">
  <metadata id="CorelCorpID_0Corel-Layer"/>
  <path class="fil0" d="M3.41333 -3.93701e-006c1.88513,0 3.41333,1.5282 3.41333,3.41333 0,1.88513 -1.5282,3.41333 -3.41333,3.41333 -1.88513,0 -3.41333,-1.5282 -3.41333,-3.41333 0,-1.88513 1.5282,-3.41333 3.41333,-3.41333z"/>
  <g style="clip-path:url(#id0)">
   <g id="_357802208">
    <g>
     <polygon id="_4367027281" class="fil1" points="3.68189,2.78443 7.46815,6.5707 7.52561,6.89294 3.73935,3.10667 "/>
     <polygon id="_436702968" class="fil1" points="3.5782,1.98237 7.36447,5.76864 7.47817,5.97769 3.6919,2.19142 "/>
     <polygon id="_436703544" class="fil1" points="3.68481,1.62155 7.47107,5.40782 7.58477,5.61687 3.7985,1.8306 "/>
     <polygon id="_436703448" class="fil1" points="4.02809,1.61264 7.81436,5.39891 7.7367,5.66176 3.95043,1.87548 "/>
     <polygon id="_436703688" class="fil1" points="4.15948,1.76179 7.94575,5.54806 8.00724,5.66112 4.22097,1.87485 "/>
     <polygon id="_436703016" class="fil1" points="4.22097,1.87485 8.00724,5.66112 7.68513,5.83631 3.89886,2.05004 "/>
     <polygon id="_436703040" class="fil1" points="3.89886,2.05004 7.68513,5.83631 7.63009,6.02258 3.84383,2.23631 "/>
     <polygon id="_436703640" class="fil1" points="4.05287,2.12261 7.83914,5.90889 7.90063,6.02195 4.11437,2.23568 "/>
     <polygon id="_436703424" class="fil1" points="4.11437,2.23568 7.90063,6.02195 7.57852,6.19714 3.79225,2.41087 "/>
     <polygon id="_436703208" class="fil1" points="3.79225,2.41087 7.57852,6.19714 7.46815,6.5707 3.68189,2.78443 "/>
     <polygon id="_436703976" class="fil1" points="4.47072,3.23985 8.25698,7.02612 7.87955,7.11701 4.09328,3.33074 "/>
     <polygon id="_436709832" class="fil1" points="2.15455,1.96286 5.94081,5.74913 6.17815,5.99888 2.39188,2.21261 "/>
     <polygon id="_436717512" class="fil1" points="2.52646,1.97747 6.31273,5.76374 6.30339,6.13067 2.51712,2.34439 "/>
     <polygon id="_354904952" class="fil1" points="3.93354,3.83467 7.71981,7.62094 7.98674,7.90182 4.20047,4.11555 "/>
     <polygon id="_354905408" class="fil1" points="2.51712,2.34439 6.30339,6.13067 6.43733,6.27162 2.65107,2.48535 "/>
     <polygon id="_354905024" class="fil1" points="2.78565,2.25021 6.57191,6.03648 6.56257,6.4034 2.7763,2.61713 "/>
     <polygon id="_354905072" class="fil1" points="4.32571,4.24734 8.11198,8.03361 8.24592,8.17456 4.45965,4.38829 "/>
     <polygon id="_354905192" class="fil1" points="2.7763,2.61713 6.56257,6.4034 6.80456,6.65804 3.01829,2.87177 "/>
     <polygon id="_354905240" class="fil1" points="4.09328,3.33074 7.87955,7.11701 7.6282,7.32874 3.84194,3.54247 "/>
     <polygon id="_354905144" class="fil1" points="4.58489,4.52008 8.37116,8.30635 8.56024,8.50532 4.77397,4.71905 "/>
     <polygon id="_354905384" class="fil1" points="2.40277,2.45304 6.18904,6.23931 5.82204,6.22996 2.03577,2.44369 "/>
     <polygon id="_354905456" class="fil1" points="3.08761,3.71999 6.87388,7.50626 6.55744,7.43557 2.77117,3.6493 "/>
     <polygon id="_354904736" class="fil1" points="2.66195,2.72578 6.44822,6.51205 6.08122,6.5027 2.29495,2.71643 "/>
     <polygon id="_354904856" class="fil1" points="3.84082,3.96652 7.62709,7.75279 7.30206,7.6352 3.5158,3.84893 "/>
     <polygon id="_354905888" class="fil1" points="3.5158,3.84893 7.30206,7.6352 7.08337,7.87308 3.2971,4.08681 "/>
     <polygon id="_354905672" class="fil1" points="4.21114,4.35621 7.99741,8.14248 7.99134,8.38076 4.20507,4.59449 "/>
     <polygon id="_354905912" class="fil1" points="4.20507,4.59449 7.99134,8.38076 7.86283,8.37739 4.07656,4.59112 "/>
     <polygon id="_354906128" class="fil1" points="2.77117,3.6493 6.55744,7.43557 6.24722,7.51028 2.46096,3.724 "/>
     <polygon id="_354905720" class="fil1" points="2.2842,3.76657 6.07047,7.55284 5.88143,7.59837 2.09517,3.81209 "/>
     <polygon id="_354905744" class="fil1" points="1.91842,3.85466 5.70469,7.64093 5.37015,7.7215 1.58388,3.93522 "/>
     <polygon id="_354906224" class="fil1" points="1.88142,3.70101 5.66769,7.48728 5.46444,7.36293 1.67817,3.57665 "/>
     <polygon id="_354905840" class="fil1" points="2.09517,3.81209 5.88143,7.59837 5.68999,7.91126 1.90372,4.12498 "/>
     <polygon id="_354905960" class="fil1" points="1.90372,4.12498 5.68999,7.91126 5.58029,7.84424 1.79402,4.05797 "/>
     <polygon id="_354905480" class="fil1" points="2.89631,4.8842 6.68258,8.67048 6.47354,8.78417 2.68727,4.9979 "/>
     <polygon id="_354905624" class="fil1" points="2.9508,5.25891 6.73707,9.04519 6.58513,9.0003 2.79887,5.21403 "/>
     <polygon id="_354906680" class="fil1" points="2.2472,3.61292 6.03347,7.39919 5.83023,7.27484 2.04396,3.48857 "/>
     <polygon id="_354906920" class="fil1" points="2.26951,4.0369 6.05578,7.82317 5.94607,7.75616 2.15981,3.96989 "/>
     <polygon id="_354906992" class="fil1" points="4.47032,4.62894 8.25659,8.41521 8.25052,8.6535 4.46425,4.86723 "/>
     <polygon id="_354906248" class="fil1" points="3.2971,4.08681 7.08337,7.87308 6.99269,8.17998 3.20643,4.39371 "/>
     <polygon id="_354906872" class="fil1" points="2.46096,3.724 6.24722,7.51028 6.05578,7.82317 2.26951,4.0369 "/>
     <polygon id="_354906656" class="fil1" points="3.00292,4.52338 6.78919,8.30965 6.58014,8.42334 2.79387,4.63707 "/>
     <polygon id="_354906440" class="fil1" points="3.09981,4.75454 6.88608,8.54081 7.06127,8.86293 3.275,5.07665 "/>
     <polygon id="_354906296" class="fil1" points="3.04824,4.92909 6.83451,8.71536 6.73707,9.04519 2.9508,5.25891 "/>
     <polygon id="_354906488" class="fil1" points="3.275,5.07665 7.06127,8.86293 6.94821,8.92441 3.16194,5.13814 "/>
     <polygon id="_354906584" class="fil1" points="3.15485,4.56826 6.94112,8.35454 6.88608,8.54081 3.09981,4.75454 "/>
     <polygon id="_354907256" class="fil1" points="3.38161,4.71582 7.16788,8.50209 7.05481,8.56358 3.26855,4.77731 "/>
     <polygon id="_354907712" class="fil1" points="3.20643,4.39371 6.99269,8.17998 7.16788,8.50209 3.38161,4.71582 "/>
     <polygon id="_354907328" class="fil1" points="4.77397,4.71905 8.56024,8.50532 8.44552,8.61403 4.65926,4.82776 "/>
     <polygon id="_354907376" class="fil1" points="4.46425,4.86723 8.25052,8.6535 8.12202,8.65013 4.33575,4.86386 "/>
     <polygon id="_354907496" class="fil1" points="4.56726,4.12491 8.35353,7.91118 8.35016,8.03969 4.56389,4.25341 "/>
     <polygon id="_354907544" class="fil1" points="3.84194,3.54247 7.6282,7.32874 7.71981,7.62094 3.93354,3.83467 "/>
     <polygon id="_354907448" class="fil1" points="4.56389,4.25341 8.35016,8.03969 8.11198,8.03361 4.32571,4.24734 "/>
     <polygon id="_354907688" class="fil1" points="4.82644,4.39764 8.61271,8.18391 8.60935,8.31242 4.82308,4.52615 "/>
     <polygon id="_354907616" class="fil1" points="4.82308,4.52615 8.60935,8.31242 8.37116,8.30635 4.58489,4.52008 "/>
     <polygon id="_354907136" class="fil1" points="5.10083,2.75233 8.8871,6.53861 8.76259,6.74211 4.97632,2.95584 "/>
     <polygon id="_354907088" class="fil1" points="5.24337,2.89153 9.02964,6.6778 9.06626,6.83122 5.28,3.04495 "/>
     <polygon id="_354908456" class="fil1" points="5.28,3.04495 9.06626,6.83122 8.79952,6.89546 5.01325,3.10919 "/>
     <polygon id="_354908360" class="fil1" points="4.73505,2.84043 8.52132,6.6267 8.3968,6.8302 4.61054,3.04393 "/>
     <polygon id="_354908504" class="fil1" points="5.14967,3.34336 8.93594,7.12963 8.62278,6.93803 4.83651,3.15176 "/>
     <polygon id="_354907904" class="fil1" points="4.83651,3.15176 8.62278,6.93803 8.43373,6.98355 4.64746,3.19728 "/>
     <polygon id="_354907928" class="fil1" points="4.85089,3.32174 8.63716,7.10802 8.57015,7.21772 4.78388,3.43145 "/>
     <polygon id="_354907784" class="fil1" points="5.21668,3.23366 9.00295,7.01993 8.93594,7.12963 5.14967,3.34336 "/>
     <polygon id="_354907832" class="fil1" points="4.78388,3.43145 8.57015,7.21772 8.25698,7.02612 4.47072,3.23985 "/>
    </g>
    <polygon id="_357801872" class="fil1" points="3.68189,2.78443 3.73935,3.10667 4.05613,3.17744 4.43379,3.0865 4.62535,2.77341 4.73505,2.84043 4.61054,3.04393 4.79957,2.99841 4.99113,2.68532 5.10083,2.75233 4.97632,2.95584 5.24337,2.89153 5.28,3.04495 5.01325,3.10919 5.21668,3.23366 5.14967,3.34336 4.83651,3.15176 4.64746,3.19728 4.85089,3.32174 4.78388,3.43145 4.47072,3.23985 4.09328,3.33074 3.84194,3.54247 3.93354,3.83467 4.20047,4.11555 4.56726,4.12491 4.56389,4.25341 4.32571,4.24734 4.45965,4.38829 4.82644,4.39764 4.82308,4.52615 4.58489,4.52008 4.77397,4.71905 4.65926,4.82776 4.47032,4.62894 4.46425,4.86723 4.33575,4.86386 4.34509,4.49716 4.21114,4.35621 4.20507,4.59449 4.07656,4.59112 4.08591,4.22443 3.84082,3.96652 3.5158,3.84893 3.2971,4.08681 3.20643,4.39371 3.38161,4.71582 3.26855,4.77731 3.15485,4.56826 3.09981,4.75454 3.275,5.07665 3.16194,5.13814 3.04824,4.92909 2.9508,5.25891 2.79887,5.21403 2.89631,4.8842 2.68727,4.9979 2.62578,4.88484 2.94789,4.70965 3.00292,4.52338 2.79387,4.63707 2.73238,4.52401 3.05449,4.34882 3.14507,4.04224 3.08761,3.71999 2.77117,3.6493 2.46096,3.724 2.26951,4.0369 2.15981,3.96989 2.2842,3.76657 2.09517,3.81209 1.90372,4.12498 1.79402,4.05797 1.91842,3.85466 1.58388,3.93522 1.54667,3.78162 1.88142,3.70101 1.67817,3.57665 1.74519,3.46695 2.05817,3.65844 2.2472,3.61292 2.04396,3.48857 2.11098,3.37886 2.42395,3.57035 2.73394,3.4957 2.98502,3.28419 2.88283,2.95821 2.66195,2.72578 2.29495,2.71643 2.29832,2.58793 2.53672,2.594 2.40277,2.45304 2.03577,2.44369 2.03914,2.31519 2.27754,2.32126 2.04043,2.07175 2.15455,1.96286 2.39188,2.21261 2.39796,1.9741 2.52646,1.97747 2.51712,2.34439 2.65107,2.48535 2.65714,2.24684 2.78565,2.25021 2.7763,2.61713 3.01829,2.87177 3.31117,2.97773 3.52987,2.73984 3.64032,2.36598 3.46514,2.04386 3.5782,1.98237 3.6919,2.19142 3.74693,2.00515 3.57175,1.68304 3.68481,1.62155 3.7985,1.8306 3.87616,1.56775 4.02809,1.61264 3.95043,1.87548 4.15948,1.76179 4.22097,1.87485 3.89886,2.05004 3.84383,2.23631 4.05287,2.12261 4.11437,2.23568 3.79225,2.41087 "/>
   </g>
  </g>
  <path class="fil2" d="M3.41333 -3.93701e-006c1.88513,0 3.41333,1.5282 3.41333,3.41333 0,1.88513 -1.5282,3.41333 -3.41333,3.41333 -1.88513,0 -3.41333,-1.5282 -3.41333,-3.41333 0,-1.88513 1.5282,-3.41333 3.41333,-3.41333z"/>
  <polygon class="fil3" points="3.67848,2.76535 3.73935,3.10667 4.07365,3.18136 4.22933,3.21614 4.10718,3.31903 3.84194,3.54247 3.94434,3.86911 3.99203,4.02122 3.84217,3.96701 3.5158,3.84893 3.28426,4.10078 3.17643,4.21807 3.14847,4.06131 3.08761,3.71999 2.75331,3.6453 2.59763,3.61052 2.71978,3.50763 2.98502,3.28419 2.88262,2.95756 2.83493,2.80544 2.98479,2.85965 3.31117,2.97774 3.5427,2.72589 3.65054,2.60859 "/>
  <polygon class="fil4" points="3.26855,4.77731 3.10133,4.46985 2.79387,4.63707 2.73238,4.52401 3.09637,4.32605 3.1529,4.2953 3.18365,4.35183 3.38161,4.71582 "/>
  <polygon class="fil4" points="3.16194,5.13814 2.99472,4.83068 2.68727,4.9979 2.62578,4.88484 2.98976,4.68687 3.0463,4.65612 3.07704,4.71266 3.275,5.07665 "/>
  <polygon class="fil4" points="4.22097,1.87485 3.85698,2.07281 3.80045,2.10356 3.7697,2.04703 3.57175,1.68304 3.68481,1.62155 3.85202,1.92901 4.15948,1.76179 "/>
  <polygon class="fil4" points="4.11437,2.23568 3.75037,2.43364 3.69384,2.46439 3.6631,2.40785 3.46514,2.04386 3.5782,1.98237 3.74542,2.28983 4.05288,2.12261 "/>
  <path class="fil5" d="M4.02809 1.61264l-0.351291 1.189 -0.151929 -0.0448898 0.351287 -1.189 0.151933 0.0448858zm-0.726 2.45728l-0.351291 1.189 -0.151933 -0.0448858 0.351291 -1.189 0.151933 0.0448898z"/>
  <polygon class="fil4" points="5.14967,3.34336 4.79623,3.12711 4.74136,3.09354 4.77489,3.03876 4.99113,2.68532 5.10083,2.75233 4.91811,3.05098 5.21668,3.23366 "/>
  <polygon class="fil4" points="4.78388,3.43145 4.43044,3.2152 4.37557,3.18163 4.4091,3.12685 4.62535,2.77341 4.73505,2.84043 4.55232,3.13907 4.85089,3.32175 "/>
  <path class="fil5" d="M5.28 3.04495l-1.20535 0.290276 -0.0366181 -0.153425 1.20535 -0.290272 0.036622 0.153421zm-2.49077 0.599992l-1.20535 0.29028 -0.0372126 -0.153602 1.20535 -0.290276 0.0372126 0.153598z"/>
  <polygon class="fil4" points="1.79402,4.05797 1.97674,3.75933 1.67817,3.57665 1.74519,3.46695 2.09862,3.6832 2.15349,3.71676 2.11997,3.77155 1.90372,4.12499 "/>
  <polygon class="fil4" points="2.15981,3.96989 2.34253,3.67124 2.04396,3.48857 2.11097,3.37886 2.46441,3.59511 2.51928,3.62868 2.48576,3.68346 2.26951,4.0369 "/>
  <polygon class="fil4" points="4.33575,4.86386 4.3463,4.44965 4.34794,4.38544 4.41224,4.38708 4.82644,4.39764 4.82308,4.52615 4.47317,4.51723 4.46425,4.86723 "/>
  <polygon class="fil4" points="4.07656,4.59113 4.08712,4.17692 4.08875,4.1127 4.15306,4.11435 4.56726,4.12491 4.56389,4.25341 4.21399,4.24449 4.20507,4.59449 "/>
  <path class="fil5" d="M4.65926 4.82776l-0.852878 -0.897484 0.114713 -0.108709 0.852882 0.89748 -0.114717 0.108713zm-1.74211 -1.83343l-0.876724 -0.922579 0.114122 -0.108886 0.876724 0.922575 -0.114122 0.10889z"/>
  <polygon class="fil4" points="2.03914,2.31519 2.38904,2.3241 2.39796,1.9741 2.52646,1.97747 2.51591,2.39168 2.51428,2.45589 2.44998,2.45425 2.03577,2.44369 "/>
  <polygon class="fil4" points="2.29832,2.58793 2.64822,2.59684 2.65714,2.24684 2.78565,2.25021 2.77509,2.66441 2.77346,2.72863 2.70916,2.72698 2.29495,2.71643 "/>
 </g>
</svg>
